<?xml version="1.0" standalone="no"?>
<!DOCTYPE svg PUBLIC "-//W3C//DTD SVG 20010904//EN"
 "http://www.w3.org/TR/2001/REC-SVG-20010904/DTD/svg10.dtd">
<svg version="1.0" xmlns="http://www.w3.org/2000/svg"
 width="493.000000pt" height="439.000000pt" viewBox="0 0 493.000000 439.000000"
 preserveAspectRatio="xMidYMid meet">
<metadata>
Created by potrace 1.16, written by Peter Selinger 2001-2019
</metadata>
<g transform="translate(0.000000,439.000000) scale(0.100000,-0.100000)"
fill="#000000" stroke="none">
<path d="M0 2195 l0 -2195 2465 0 2465 0 0 2195 0 2194 -2465 0 -2465 0 0
-2194z m2157 262 c-1 -336 -2 -61 -2 613 0 674 1 949 2 613 2 -337 2 -889 0
-1226z m-850 -79 c-1 -282 -2 -54 -2 507 0 561 1 792 2 513 2 -278 2 -737 0
-1020z m1191 1447 l22 -75 85 0 c47 0 85 -3 85 -7 -1 -5 -30 -28 -65 -53 -36
-25 -65 -47 -65 -50 0 -3 11 -39 24 -80 14 -41 23 -76 22 -78 -2 -2 -34 20
-70 47 l-67 51 -67 -49 c-37 -27 -68 -48 -69 -47 -2 2 8 36 22 76 14 40 25 76
25 79 0 3 -29 26 -65 51 -35 25 -64 48 -65 53 0 4 37 7 83 7 l83 0 24 75 c13
41 26 75 29 75 3 0 16 -34 29 -75z m747 -203 c10 -35 23 -66 28 -69 5 -3 45
-5 88 -4 44 1 79 0 79 -3 0 -2 -31 -27 -70 -55 l-70 -51 29 -80 c15 -44 26
-80 24 -80 -3 0 -86 59 -128 91 -6 4 -39 -14 -75 -41 -36 -27 -68 -50 -71 -50
-3 0 7 36 22 80 l29 81 -70 51 c-39 28 -70 52 -70 55 0 2 36 3 81 2 44 -1 84
2 88 7 5 5 19 40 31 77 12 38 25 65 29 60 4 -4 16 -36 26 -71z m-2040 -544
c14 -46 29 -74 39 -76 14 -3 16 -21 16 -119 l0 -115 -39 31 c-21 17 -42 31
-46 31 -4 0 -36 -22 -71 -50 -35 -27 -65 -50 -68 -50 -2 0 7 28 19 63 40 111
43 98 -36 153 l-72 49 89 5 88 5 25 77 c14 43 27 76 29 74 2 -3 14 -37 27 -78z
m2692 -78 c45 0 83 -3 83 -7 0 -5 -19 -20 -43 -35 -23 -15 -52 -36 -65 -46
l-22 -17 25 -74 c14 -41 25 -78 25 -83 0 -5 -26 11 -57 35 -32 24 -63 47 -70
51 -7 4 -42 -15 -83 -44 -38 -27 -70 -48 -70 -47 0 2 11 37 25 77 14 40 25 77
25 81 0 5 -30 30 -67 56 l-68 48 87 3 87 3 21 67 c12 37 24 74 27 82 3 8 16
-22 31 -67 l25 -83 84 0z m-2891 -673 l21 -72 88 -5 88 -5 -67 -45 c-38 -26
-66 -52 -66 -62 0 -9 11 -47 24 -83 13 -36 21 -65 19 -65 -3 0 -34 20 -69 45
-34 25 -66 45 -71 45 -4 0 -35 -21 -68 -46 -33 -25 -61 -41 -62 -37 -2 5 8 41
21 80 l24 71 -70 51 -70 50 88 3 88 3 24 78 c13 43 27 75 30 72 4 -4 16 -39
28 -78z m2984 5 l25 -77 85 -5 85 -5 -68 -48 c-37 -26 -67 -49 -67 -51 0 -1
11 -36 25 -76 14 -40 23 -75 21 -78 -3 -2 -32 17 -65 42 -33 25 -63 46 -66 46
-4 0 -36 -20 -71 -45 -34 -25 -65 -45 -68 -45 -3 0 6 33 20 72 13 40 22 78 20
85 -3 6 -32 31 -66 55 l-62 43 86 3 85 3 21 68 c11 37 20 73 20 80 0 31 18 2
40 -67z m-2730 -977 c0 -83 0 -83 -59 -36 l-24 19 -68 -49 c-37 -27 -69 -49
-71 -49 -3 0 7 35 23 79 25 72 26 79 11 95 -15 15 -9 16 86 16 l102 0 0 -75z
m2607 57 c-16 -17 -15 -23 8 -92 14 -40 25 -75 25 -78 0 -2 -29 17 -64 42 -36
25 -70 46 -76 46 -7 0 -39 -21 -72 -46 -33 -25 -61 -44 -63 -42 -2 2 9 38 23
80 27 77 27 77 7 92 -18 14 -9 15 104 16 120 0 123 -1 108 -18z m-513 -452
l87 -5 -70 -52 -71 -53 29 -80 c15 -44 26 -80 24 -80 -2 0 -34 22 -70 50 -41
31 -70 47 -77 42 -65 -50 -126 -91 -126 -84 0 4 11 41 24 82 14 41 24 75 23
75 -1 1 -33 24 -70 51 l-69 49 88 5 88 5 25 78 26 78 26 -78 26 -78 87 -5z
m-856 -125 l22 -75 85 0 c47 0 85 -3 85 -7 0 -5 -17 -18 -38 -31 -20 -13 -50
-34 -66 -46 l-28 -24 24 -76 c14 -42 22 -76 18 -76 -4 0 -36 21 -70 46 l-62
45 -54 -41 c-68 -51 -90 -61 -80 -34 15 36 46 127 46 134 0 4 -32 29 -71 56
l-72 49 90 3 90 3 23 74 c13 41 26 75 29 75 3 0 16 -34 29 -75z"/>
</g>
</svg>
